<svg aria-hidden="true" style="position: absolute; width: 0; height: 0; overflow: hidden;" version="1.1" xmlns="http://www.w3.org/2000/svg" xmlns:xlink="http://www.w3.org/1999/xlink">
    <defs>
        <symbol id="elipse-menu-1" viewBox="0 0 198 182" fill="none">
            <title>elipse-menu-1</title>
            <path d="M195.906 88.0134C195.906 82.5805 196.751 49.0171 171.759 24.9915C151.235 5.19146 125.761 3.86342 98.8777 2.45488C82.7802 1.65001 69.3387 1.08657 53.1204 7.8073C37.4226 14.3591 24.1027 25.553 14.9461 39.8885C5.78959 54.2239 1.23397 71.0158 1.88994 88.0134C1.73522 110.776 9.97344 132.797 25.0302 149.868C39.5227 165.555 59.037 175.689 80.2046 178.522C111.877 182.828 135.862 168.944 148.981 161.378C160.235 155.518 170.155 147.392 178.118 137.513C189.017 123.246 195.231 105.954 195.906 88.0134V88.0134Z" stroke="#DDDDDD" stroke-miterlimit="10"/>
        </symbol>

        <symbol id="elipse-menu-2" viewBox="0 0 198 182" fill="none">
            <title>elipse-menu-2</title>
            <path d="M195.906 88.0134C195.906 82.5805 196.751 49.0171 171.759 24.9915C151.235 5.19146 125.761 3.86342 98.8777 2.45488C82.7802 1.65001 69.3387 1.08657 53.1204 7.8073C37.4226 14.3591 24.1027 25.553 14.9461 39.8885C5.78959 54.2239 1.23397 71.0158 1.88994 88.0134C1.73522 110.776 9.97344 132.797 25.0302 149.868C39.5227 165.555 59.037 175.689 80.2046 178.522C111.877 182.828 135.862 168.944 148.981 161.378C160.235 155.518 170.155 147.392 178.118 137.513C189.017 123.246 195.231 105.954 195.906 88.0134V88.0134Z" stroke="#DDDDDD" stroke-miterlimit="10"/>
        </symbol>

        <symbol id="menu-open" viewBox="0 0 30 13" fill="none">
            <title>menu-open</title>
            <line x1="15" y1="0.5" x2="30" y2="0.5" stroke="#DDDDDD"/>
            <line y1="12.5" x2="30" y2="12.5" stroke="#DDDDDD"/>
        </symbol>
        
        <symbol id="menu-close" viewBox="0 0 30 30" fill="none">
            <title>menu-close</title>
            <line x1="1.29586" y1="28.9307" x2="29.5801" y2="0.646417" stroke="#DDDDDD"/>
            <line x1="0.353553" y1="0.923546" x2="28.6378" y2="29.2078" stroke="#DDDDDD"/>
        </symbol>

        <symbol id="hello" viewBox="0 0 868 266" fill="none">
            <title>hello</title>
            <path d="M216.895 18.7052V251.869H160.098V155.88H71.7484V251.869H14.952V18.7052H71.7484V110.044H160.098V18.7052H216.895V18.7052Z" stroke="#DDDDDD" stroke-width="4" stroke-miterlimit="10"/>
            <path d="M431.454 172.819H302.914C303.794 184.334 307.509 193.136 314.041 199.225C320.568 205.32 328.6 208.359 338.121 208.359C352.287 208.359 362.146 202.38 367.682 190.423H428.132C425.027 202.602 419.441 213.562 411.359 223.305C403.271 233.054 393.141 240.693 380.968 246.223C368.789 251.759 355.171 254.527 340.114 254.527C321.957 254.527 305.787 250.657 291.621 242.902C277.45 235.152 266.379 224.086 258.407 209.687C250.436 195.294 246.45 178.466 246.45 159.202C246.45 139.937 250.38 123.114 258.241 108.716C266.096 94.323 277.118 83.2571 291.289 75.5016C305.455 67.7516 321.73 63.8766 340.114 63.8766C358.05 63.8766 373.993 67.6464 387.943 75.1694C401.893 82.698 412.798 93.4373 420.659 107.387C428.514 121.337 432.45 137.612 432.45 156.212C432.45 161.527 432.118 167.068 431.454 172.819ZM374.325 141.266C374.325 131.523 371.004 123.779 364.361 118.016C357.718 112.259 349.414 109.38 339.45 109.38C329.929 109.38 321.896 112.154 315.37 117.684C308.838 123.219 304.791 131.086 303.246 141.266H374.325Z" stroke="#DDDDDD" stroke-width="4" stroke-miterlimit="10"/>
            <path d="M519.139 6.08374V251.869H462.343V6.08374H519.139V6.08374Z" stroke="#DDDDDD" stroke-width="4" stroke-miterlimit="10"/>
            <path d="M617.121 6.08374V251.869H560.325V6.08374H617.121V6.08374Z" stroke="#DDDDDD" stroke-width="4" stroke-miterlimit="10"/>
            <path d="M781.078 144.643L827.036 108.888C825.807 106.618 824.473 104.415 823.028 102.278C817.232 93.7141 809.748 86.3793 801.256 80.4893C792.642 74.5107 783.043 70.0157 773.057 66.8548C760.829 62.9854 748.069 61.5295 735.292 62.6643C722.981 63.7548 711.107 66.7109 699.947 72.0584C689.158 77.2287 679.404 83.5118 671.288 92.3911C664.136 100.219 658.517 109.225 654.377 118.979C650.507 128.091 647.972 137.762 646.832 147.593C645.708 157.308 645.94 167.19 647.568 176.833C649.184 186.415 652.174 195.765 656.53 204.456C660.926 213.23 666.705 221.296 673.658 228.215L716.67 194.752" stroke="#DDDDDD" stroke-width="4" stroke-miterlimit="10"/>
            <path d="M805.07 246.24C799.285 240.864 796.396 234.211 796.396 226.294C796.396 218.179 799.285 211.376 805.07 205.895C810.855 200.415 818.311 197.675 827.445 197.675C836.374 197.675 843.737 200.415 849.522 205.895C855.307 211.376 858.202 218.179 858.202 226.294C858.202 234.211 855.307 240.859 849.522 246.24C843.737 251.62 836.38 254.311 827.445 254.311C818.317 254.305 810.855 251.62 805.07 246.24Z" fill="#F00544"/>
            <path d="M781.051 144.609C776.14 130.051 761.831 112.929 744 112.929C722.294 112.929 704.696 134.241 704.696 160.536C704.696 165.463 704.42 181.682 716.62 194.691" stroke="#DDDDDD" stroke-width="4" stroke-miterlimit="10"/>
            <path d="M827.036 108.882L781.051 144.609" stroke="#DDDDDD" stroke-width="4" stroke-miterlimit="10"/>
            <path d="M715.159 195.926L716.62 194.691L714.412 192.134" stroke="#DDDDDD" stroke-width="4" stroke-miterlimit="10"/>
            <path d="M783.597 142.628L781.089 144.482L779.938 141.653" stroke="#DDDDDD" stroke-width="4" stroke-miterlimit="10"/>
        </symbol>

        <symbol id="website" viewBox="0 0 143 143" width="143" height="143" >
        <title>website</title>
            <path d="M132.581 11.0724H10.4186C4.67375 11.0724 0 15.7462 0 21.4911V121.509C0 127.254 4.67375 131.928 10.4186 131.928H132.582C138.326 131.928 143 127.254 143 121.509V21.4911C143 15.7462 138.326 11.0724 132.581 11.0724ZM138.811 34.3535H32.9003C31.7432 34.3535 30.8056 35.2911 30.8056 36.4482C30.8056 37.6054 31.7432 38.543 32.9003 38.543H138.811V121.509C138.811 124.944 136.016 127.738 132.581 127.738H10.4186C6.98382 127.738 4.18945 124.944 4.18945 121.509V38.543H23.1082C24.2653 38.543 25.2029 37.6054 25.2029 36.4482C25.2029 35.2911 24.2653 34.3535 23.1082 34.3535H4.18945V21.4911C4.18945 18.056 6.98382 15.2616 10.4186 15.2616H132.582C136.016 15.2616 138.811 18.056 138.811 21.4911V34.3535H138.811Z"/>
            <path d="M18.1724 26.896C19.3258 26.896 20.2607 25.9611 20.2607 24.8077C20.2607 23.6544 19.3258 22.7194 18.1724 22.7194C17.0191 22.7194 16.0841 23.6544 16.0841 24.8077C16.0841 25.9611 17.0191 26.896 18.1724 26.896Z"/>
            <path d="M28.0149 26.896C29.1682 26.896 30.1032 25.9611 30.1032 24.8077C30.1032 23.6544 29.1682 22.7194 28.0149 22.7194C26.8615 22.7194 25.9266 23.6544 25.9266 24.8077C25.9266 25.9611 26.8615 26.896 28.0149 26.896Z"/>
            <path d="M37.8573 26.896C39.0106 26.896 39.9456 25.9611 39.9456 24.8077C39.9456 23.6544 39.0106 22.7194 37.8573 22.7194C36.7039 22.7194 35.769 23.6544 35.769 24.8077C35.769 25.9611 36.7039 26.896 37.8573 26.896Z"/>
            <path d="M126.916 22.713H114.651C113.494 22.713 112.557 23.6506 112.557 24.8077C112.557 25.9648 113.494 26.9024 114.651 26.9024H126.916C128.073 26.9024 129.011 25.9648 129.011 24.8077C129.011 23.6506 128.073 22.713 126.916 22.713Z"/>
            <path d="M54.8634 90.1824C54.8634 91.3248 55.7893 92.2509 56.9319 92.2509C58.0742 92.2509 59.0003 91.3248 59.0003 90.1824C59.0003 89.0401 58.0742 88.114 56.9319 88.114C55.7893 88.114 54.8634 89.0401 54.8634 90.1824Z"/>
            <path d="M84.0963 90.1824C84.0963 91.3248 85.0224 92.2509 86.1648 92.2509C87.3071 92.2509 88.2332 91.3248 88.2332 90.1824C88.2332 89.0401 87.3071 88.114 86.1648 88.114C85.0224 88.114 84.0963 89.0401 84.0963 90.1824Z"/>
            <path d="M49.3548 76.6262L46.8498 83.7732L44.3842 76.5452C44.382 76.5391 44.3792 76.5335 44.3769 76.5274C43.7192 74.6561 41.1013 74.6801 40.4347 76.5036C40.4327 76.5087 40.4302 76.5134 40.4285 76.5187L37.8188 83.8416L35.3484 76.6539C34.9725 75.5599 33.7824 74.9776 32.6867 75.3538C31.5927 75.7297 31.0103 76.9215 31.3866 78.0155L35.802 90.8634C36.0913 91.7052 36.8809 92.2722 37.7713 92.2772H37.783C38.6684 92.2772 39.4588 91.7203 39.756 90.8858L42.3585 83.5833L44.8403 90.8589C45.1285 91.7038 45.9212 92.2733 46.8141 92.2772H46.8227C47.7123 92.2772 48.5049 91.7153 48.7996 90.8751L53.3086 78.0118C53.6912 76.9203 53.1164 75.725 52.0244 75.342C50.9334 74.9602 49.7378 75.5342 49.3548 76.6262Z"/>
            <path d="M78.5051 76.6262L76 83.7732L73.5344 76.5453C73.5322 76.5391 73.5294 76.5335 73.5271 76.5274C72.88 74.684 70.2627 74.6499 69.5849 76.5036C69.5829 76.5087 69.5804 76.5134 69.5787 76.5187L66.969 83.8416L64.4989 76.6539C64.1229 75.5596 62.9315 74.9773 61.8372 75.3538C60.7432 75.7297 60.1608 76.9215 60.537 78.0155L64.9522 90.8634C65.2412 91.7052 66.0311 92.2722 66.9212 92.2772H66.9332C67.8186 92.2772 68.609 91.7203 68.9062 90.8857L71.5087 83.5833L73.9908 90.8592C74.2793 91.7041 75.0717 92.2736 75.9646 92.2775H75.9732C76.8628 92.2775 77.6554 91.7155 77.9501 90.8754L82.4588 78.0121C82.8414 76.9206 82.2666 75.7252 81.1746 75.3423C80.0839 74.9602 78.888 75.5345 78.5051 76.6262Z"/>
            <path d="M107.656 76.6262L105.151 83.7731L102.685 76.5452C102.035 74.6588 99.4046 74.6737 98.7354 76.5033C98.7334 76.5084 98.7309 76.5131 98.7292 76.5184L96.1192 83.8413L93.6491 76.6536C93.2731 75.5593 92.0817 74.977 90.9874 75.3535C89.8934 75.7294 89.311 76.9212 89.6873 78.0152L94.1024 90.8631C94.3914 91.7049 95.1813 92.2719 96.0714 92.2769H96.0834C96.9688 92.2769 97.7592 91.7202 98.0564 90.8854L100.659 83.5829L103.141 90.8589C103.429 91.7038 104.222 92.2733 105.115 92.2772H105.123C106.013 92.2772 106.806 91.7152 107.1 90.8751L111.609 78.0118C111.992 76.9203 111.417 75.7249 110.325 75.342C109.234 74.9602 108.038 75.5342 107.656 76.6262Z"/>
            <path d="M16.4749 70.7029V96.701C16.4749 101.04 20.0052 104.57 24.3446 104.57H39.0303C46.1513 115.625 58.3379 122.298 71.5 122.298C84.6496 122.298 96.842 115.636 103.97 104.57H119.124C123.463 104.57 126.994 101.04 126.994 96.701V88.348C126.994 87.1909 126.056 86.2533 124.899 86.2533C123.742 86.2533 122.804 87.1909 122.804 88.348V96.701C122.804 98.7303 121.153 100.381 119.124 100.381H24.3446C22.3153 100.381 20.6643 98.7303 20.6643 96.701V70.7029C20.6643 68.6735 22.3153 67.0226 24.3446 67.0226H119.124C121.154 67.0226 122.805 68.6735 122.805 70.7029V78.4824C122.805 79.6395 123.742 80.5771 124.899 80.5771C126.056 80.5771 126.994 79.6395 126.994 78.4824V70.7029C126.994 66.3635 123.464 62.8331 119.124 62.8331H103.97C96.8487 51.7788 84.6621 45.1064 71.5 45.1064C58.3499 45.1064 46.1577 51.7691 39.0303 62.8334H24.3446C20.0052 62.8334 16.4749 66.3635 16.4749 70.7029ZM90.4201 104.57H98.8485C95.133 109.43 90.1272 113.339 84.1572 115.697C86.9069 112.481 88.9558 108.54 90.4201 104.57ZM73.5947 104.57H85.9246C83.6254 110.158 79.4826 116.555 73.5947 117.873V104.57ZM69.4053 104.57V117.873C63.5138 116.554 59.3721 110.151 57.0754 104.57H69.4053ZM52.5799 104.57C54.0442 108.539 56.0929 112.481 58.8428 115.697C52.8703 113.338 47.8653 109.428 44.1515 104.57H52.5799ZM98.8465 62.8334H90.4201C88.9522 58.8546 86.9016 54.9167 84.1575 51.7071C90.1445 54.0722 95.1425 57.9882 98.8465 62.8334ZM73.5947 49.5308C79.4862 50.8496 83.6279 57.2528 85.9246 62.8334H73.5947V49.5308ZM69.4053 49.5308V62.8334H57.0754C59.3749 57.2458 63.5174 50.8488 69.4053 49.5308ZM58.8425 51.7071C56.0976 54.9179 54.0473 58.8562 52.5799 62.8334H44.1535C47.857 57.9887 52.8544 54.0727 58.8425 51.7071Z"/>
        </symbol>

        <symbol id="e-com" width="143" height="143" viewBox="0 0 143 143">
        <title>e-com</title>
            <path d="M113.32 116.967H40.9413C39.7574 116.967 38.6089 117.211 37.5288 117.693L22.9562 124.191C21.9494 124.64 21.3009 125.64 21.3009 126.742C21.3009 127.845 21.9494 128.844 22.9562 129.293L37.5286 135.791C38.6094 136.273 39.7574 136.518 40.941 136.518H113.32C117.94 136.518 121.699 132.759 121.699 128.139V125.346C121.699 120.726 117.94 116.967 113.32 116.967ZM39.804 130.689L30.9517 126.742L39.8043 122.795C40.164 122.634 40.5464 122.553 40.941 122.553H96.5624V130.932H40.9413C40.5469 130.932 40.1643 130.85 39.804 130.689ZM116.113 128.139C116.113 129.679 114.86 130.932 113.32 130.932H102.148V122.553H113.32C114.86 122.553 116.113 123.806 116.113 125.346V128.139Z" />
            <path d="M19.5508 49.1563C14.9307 49.1563 11.1719 52.9151 11.1719 57.5352C11.1719 62.1553 14.9307 65.9141 19.5508 65.9141C24.1709 65.9141 27.9297 62.1553 27.9297 57.5352C27.9297 52.9151 24.1709 49.1563 19.5508 49.1563ZM19.5508 60.3282C18.0107 60.3282 16.7578 59.0753 16.7578 57.5352C16.7578 55.9952 18.0107 54.7422 19.5508 54.7422C21.0908 54.7422 22.3438 55.9952 22.3438 57.5352C22.3438 59.0753 21.0908 60.3282 19.5508 60.3282Z" />
            <path d="M22.3438 71.5001H16.7578C13.6777 71.5001 11.1719 74.0059 11.1719 77.086V91.8301C11.1719 94.9102 13.6777 97.416 16.7578 97.416H22.3438C25.4238 97.416 27.9297 94.9102 27.9297 91.8301V77.086C27.9297 74.0059 25.4238 71.5001 22.3438 71.5001ZM22.3438 91.8301H16.7578V77.086H22.3438L22.3474 91.8301C22.3474 91.8301 22.3463 91.8301 22.3438 91.8301Z" />
            <path d="M22.3438 17.6544H16.7578C13.6777 17.6544 11.1719 20.1602 11.1719 23.2403V37.9844C11.1719 41.0645 13.6777 43.5703 16.7578 43.5703H22.3438C25.4238 43.5703 27.9297 41.0645 27.9297 37.9844V23.2403C27.9297 20.1602 25.4238 17.6544 22.3438 17.6544ZM22.3438 37.9844H16.7578V23.2403H22.3438L22.3474 37.9841C22.3474 37.9841 22.3463 37.9844 22.3438 37.9844Z" />
            <path d="M129.035 6.48248H13.9648C6.26463 6.48248 0 12.7471 0 20.4473V94.623C0 102.323 6.26463 108.588 13.9648 108.588H129.035C136.735 108.588 143 102.323 143 94.623V60.3281C143 58.7856 141.749 57.5352 140.207 57.5352C138.665 57.5352 137.414 58.7856 137.414 60.3281V94.623C137.414 99.2431 133.655 103.002 129.035 103.002H39.1016V12.0684H129.035C133.655 12.0684 137.414 15.8272 137.414 20.4473V37.9844C137.414 39.5269 138.665 40.7773 140.207 40.7773C141.749 40.7773 143 39.5269 143 37.9844V20.4473C143 12.7471 136.735 6.48248 129.035 6.48248ZM5.58594 94.623V20.4473C5.58594 15.8272 9.34472 12.0684 13.9648 12.0684H33.5156V103.002H13.9648C9.34472 103.002 5.58594 99.2431 5.58594 94.623Z"/>
            <path d="M58.6523 17.6544H47.4805C45.9379 17.6544 44.6875 18.9048 44.6875 20.4473V31.6192C44.6875 33.1618 45.9379 34.4122 47.4805 34.4122C49.023 34.4122 50.2734 33.1618 50.2734 31.6192V23.2403H58.6523C60.1949 23.2403 61.4453 21.9899 61.4453 20.4473C61.4453 18.9048 60.1949 17.6544 58.6523 17.6544Z"/>
            <path d="M129.035 80.6581C127.493 80.6581 126.242 81.9086 126.242 83.4511V91.83H117.863C116.321 91.83 115.07 93.0804 115.07 94.623C115.07 96.1655 116.321 97.416 117.863 97.416H129.035C130.577 97.416 131.828 96.1655 131.828 94.623V83.4511C131.828 81.9086 130.577 80.6581 129.035 80.6581Z"/>
            <path d="M131.828 20.4473C131.828 18.9048 130.577 17.6544 129.035 17.6544H117.863C116.321 17.6544 115.07 18.9048 115.07 20.4473C115.07 21.9899 116.321 23.2403 117.863 23.2403H126.242V31.6192C126.242 33.1618 127.493 34.4122 129.035 34.4122C130.577 34.4122 131.828 33.1618 131.828 31.6192V20.4473Z"/>
            <path d="M47.4805 80.6581C45.9379 80.6581 44.6875 81.9086 44.6875 83.4511V94.623C44.6875 96.1655 45.9379 97.416 47.4805 97.416H58.6523C60.1949 97.416 61.4453 96.1655 61.4453 94.623C61.4453 93.0804 60.1949 91.83 58.6523 91.83H50.2734V83.4511C50.2734 81.9086 49.023 80.6581 47.4805 80.6581Z"/>
            <path d="M140.207 51.9493C141.75 51.9493 143 50.6988 143 49.1563C143 47.6138 141.75 46.3633 140.207 46.3633C138.665 46.3633 137.414 47.6138 137.414 49.1563C137.414 50.6988 138.665 51.9493 140.207 51.9493Z"/>
        </symbol>

        <symbol id="design" width="143" height="143" viewBox="0 0 143 143">
        <title>design</title>
            <path d="M143 13.9897C143 9.75477 139.554 6.30908 135.319 6.30908H104.736C103.579 6.30908 102.642 7.24668 102.642 8.40381C102.642 9.56094 103.579 10.4985 104.736 10.4985H135.319C137.245 10.4985 138.811 12.0646 138.811 13.9897L138.81 92.0923H4.18973L4.18945 13.9897C4.18945 12.0646 5.75547 10.4985 7.68066 10.4985H95.2402C96.3974 10.4985 97.335 9.56094 97.335 8.40381C97.335 7.24668 96.3974 6.30908 95.2402 6.30908H7.68066C3.44541 6.30908 0 9.75477 0 13.9897V107.212C0 111.447 3.44541 114.893 7.68066 114.893H52.6427L50.3117 132.501H45.7396C44.5828 132.501 43.6449 133.439 43.6449 134.596C43.6449 135.753 44.5828 136.691 45.7396 136.691H97.2601C98.4172 136.691 99.3548 135.753 99.3548 134.596C99.3548 133.439 98.4172 132.501 97.2601 132.501H92.688L92.0658 127.801C91.9138 126.654 90.8611 125.85 89.7141 125.999C88.5673 126.151 87.7607 127.204 87.9123 128.351L88.4617 132.501H54.5377L56.8688 114.893H61.054C62.0209 119.81 66.3132 123.449 71.5 123.449C76.6053 123.449 80.9517 119.75 81.9393 114.893H86.131L86.6722 118.982C86.8119 120.035 87.7118 120.802 88.7463 120.802C88.8379 120.802 88.9306 120.796 89.0239 120.784C90.1707 120.632 90.9773 119.579 90.8257 118.432L90.3573 114.893H135.319C139.555 114.893 143 111.447 143 107.212V13.9897ZM71.5 119.26C68.6498 119.26 66.2439 117.45 65.3795 114.893H77.6085C76.7273 117.424 74.3019 119.26 71.5 119.26ZM138.811 107.212C138.811 109.138 137.245 110.704 135.319 110.704H7.68066C5.75547 110.704 4.18945 109.138 4.18945 107.212V96.2818H138.811V107.212Z"/>
            <path d="M76.0651 64.2261H113.443C114.442 64.2261 115.302 63.5209 115.497 62.5414L122.321 28.3423H124.92C126.077 28.3423 127.015 27.4047 127.015 26.2476C127.015 25.0905 126.077 24.1529 124.92 24.1529H120.603C119.604 24.1529 118.744 24.8581 118.549 25.8376L117.37 31.7445L73.7338 34.9597C73.1073 35.0058 72.5348 35.3306 72.1736 35.8445C71.8125 36.3584 71.7011 37.0073 71.8701 37.6122L77.0976 56.3271C77.3504 57.2323 78.1752 57.8582 79.1153 57.8582H112.16L111.725 60.0364H76.0651C72.909 60.0364 70.3417 62.6037 70.3417 65.7598C70.3417 68.9155 72.909 71.4828 76.0651 71.4828H77.8749C77.5297 72.2995 77.3387 73.1969 77.3387 74.1378C77.3387 77.9114 80.4084 80.9812 84.182 80.9812C87.9556 80.9812 91.0253 77.9114 91.0253 74.1378C91.0253 73.1969 90.8343 72.2998 90.4891 71.4828H101.755C101.409 72.2995 101.218 73.1969 101.218 74.1378C101.218 77.9114 104.288 80.9812 108.062 80.9812C111.835 80.9812 114.905 77.9114 114.905 74.1378C114.905 73.1969 114.714 72.2998 114.369 71.4828H116.435C117.592 71.4828 118.529 70.5452 118.529 69.3881C118.529 68.231 117.592 67.2934 116.435 67.2934H76.0651C75.2194 67.2934 74.5312 66.6055 74.5312 65.7598C74.5312 64.914 75.2191 64.2261 76.0651 64.2261ZM80.705 53.669L76.5935 38.95L116.519 36.0076L112.995 53.669H80.705ZM84.182 76.792C82.7188 76.792 81.5281 75.6013 81.5281 74.1381C81.5281 72.6749 82.7188 71.4842 84.182 71.4842C85.6453 71.4842 86.8359 72.6749 86.8359 74.1381C86.8359 75.6013 85.6453 76.792 84.182 76.792ZM108.062 76.792C106.599 76.792 105.408 75.6013 105.408 74.1381C105.408 72.6749 106.599 71.4842 108.062 71.4842C109.525 71.4842 110.716 72.6749 110.716 74.1381C110.716 75.6013 109.525 76.792 108.062 76.792Z" />
            <path d="M85.8522 40.6958C84.6951 40.6958 83.7575 41.6334 83.7575 42.7905V48.6558C83.7575 49.8129 84.6951 50.7505 85.8522 50.7505C87.0094 50.7505 87.947 49.8129 87.947 48.6558V42.7905C87.947 41.6334 87.0091 40.6958 85.8522 40.6958Z" />
            <path d="M92.9743 40.6958C91.8172 40.6958 90.8796 41.6334 90.8796 42.7905V48.6558C90.8796 49.8129 91.8172 50.7505 92.9743 50.7505C94.1314 50.7505 95.069 49.8129 95.069 48.6558V42.7905C95.069 41.6334 94.1312 40.6958 92.9743 40.6958Z"/>
            <path d="M100.096 40.6958C98.9392 40.6958 98.0016 41.6334 98.0016 42.7905V48.6558C98.0016 49.8129 98.9392 50.7505 100.096 50.7505C101.254 50.7505 102.191 49.8129 102.191 48.6558V42.7905C102.191 41.6334 101.253 40.6958 100.096 40.6958Z" />
            <path d="M107.218 40.6958C106.061 40.6958 105.124 41.6334 105.124 42.7905V48.6558C105.124 49.8129 106.061 50.7505 107.218 50.7505C108.376 50.7505 109.313 49.8129 109.313 48.6558V42.7905C109.313 41.6334 108.375 40.6958 107.218 40.6958Z" />
            <path d="M29.2309 36.1338C30.3878 36.1338 31.3257 35.1962 31.3257 34.0391V28.7346L32.5057 29.844C32.9101 30.2241 33.4257 30.4127 33.9402 30.4127C34.4979 30.4127 35.0546 30.1912 35.4665 29.753C36.2589 28.91 36.2181 27.5842 35.3755 26.7919L30.666 22.3639C29.8594 21.6056 28.6025 21.6056 27.7962 22.3639L23.0864 26.7916C22.2435 27.5839 22.2027 28.9098 22.9954 29.7527C23.7874 30.5953 25.1133 30.6364 25.9565 29.8437L27.1365 28.7344V34.0388C27.1362 35.1959 28.0741 36.1338 29.2309 36.1338Z" />
            <path d="M46.1761 36.1338C47.333 36.1338 48.2709 35.1962 48.2709 34.0391V28.7346L49.4509 29.844C49.8553 30.2241 50.3709 30.4127 50.8854 30.4127C51.4431 30.4127 51.9998 30.1912 52.4117 29.753C53.2041 28.91 53.1633 27.5842 52.3207 26.7919L47.6112 22.3639C46.8046 21.6056 45.5477 21.6056 44.7414 22.3639L40.0316 26.7916C39.1887 27.5839 39.1479 28.9098 39.9406 29.7527C40.7327 30.5953 42.0585 30.6364 42.9017 29.8437L44.0817 28.7344V34.0388C44.0814 35.1959 45.0193 36.1338 46.1761 36.1338Z" />
            <path d="M59.0713 47.5364C59.0713 44.8414 56.8785 42.6487 54.1836 42.6487H22.3438C19.6488 42.6487 17.4561 44.8414 17.4561 47.5364V55.9798C17.4561 58.6747 19.6488 60.8675 22.3438 60.8675H36.0293C37.1861 60.8675 38.124 59.9299 38.124 58.7728C38.124 57.6156 37.1861 56.678 36.0293 56.678H22.3438C21.9589 56.678 21.6455 56.365 21.6455 55.9798V47.5364C21.6455 47.1512 21.9589 46.8381 22.3438 46.8381H54.1836C54.5685 46.8381 54.8818 47.1512 54.8818 47.5364V55.9798C54.8818 56.365 54.5685 56.678 54.1836 56.678H45.5254C44.3685 56.678 43.4307 57.6156 43.4307 58.7728C43.4307 59.9299 44.3685 60.8675 45.5254 60.8675H54.1836C56.8785 60.8675 59.0713 58.6747 59.0713 55.9798V47.5364Z" />
            <path d="M19.5508 72.3186H33.9404C35.0973 72.3186 36.0352 71.381 36.0352 70.2239C36.0352 69.0667 35.0973 68.1292 33.9404 68.1292H19.5508C18.3939 68.1292 17.4561 69.0667 17.4561 70.2239C17.4561 71.381 18.3939 72.3186 19.5508 72.3186Z" />
            <path d="M19.5508 79.7388H56.9766C58.1334 79.7388 59.0713 78.8012 59.0713 77.644C59.0713 76.4869 58.1334 75.5493 56.9766 75.5493H19.5508C18.3939 75.5493 17.4561 76.4869 17.4561 77.644C17.4561 78.8012 18.3939 79.7388 19.5508 79.7388Z" />                
        </symbol>

        <symbol id="rect" viewBox="0 0 86 15">
        <title>rect</title>
            <rect width="86" height="15"/>
        </symbol>
        
        <symbol id="bracket" viewBox="0 0 93 86">
        <title>bracket</title>
            <rect width="86" height="15" />
            <rect x="78" y="86" width="86" height="15" transform="rotate(-90 78 86)" />
        </symbol>
        
        <symbol id="m" viewBox="0 0 107 93">
        <title>m</title>
            <rect x="81" y="93" width="93" height="26" transform="rotate(-90 81 93)"/>
            <rect x="4" width="93" height="26"/>
            <rect x="38" y="93" width="93" height="26" transform="rotate(-90 38 93)"/>
            <rect y="93" width="93" height="26" transform="rotate(-90 0 93)"/>
        </symbol>
        
        <symbol id="linkedin" viewBox="0 0 85 85">
        <title>linkedin</title>
            <path d="M15.6007 33.2825H27.4319V68.8769H15.6007V33.2825Z"/>
            <path d="M21.4383 28.4246H21.5163C25.6438 28.4246 28.2103 25.6903 28.2103 22.2728C28.1323 18.78 25.6438 16.123 21.5937 16.123C17.5443 16.123 14.8969 18.78 14.8969 22.2728C14.8969 25.6903 17.4696 28.4246 21.4383 28.4246Z"/>
            <path d="M45.8121 68.8769V48.9974C45.8121 47.9308 45.8936 46.8738 46.2051 46.1132C47.0615 43.9841 49.0051 41.7859 52.2761 41.7859C56.559 41.7859 58.2691 45.0507 58.2691 49.8333V68.8762H70.1031V48.4648C70.1031 37.5324 64.2655 32.4465 56.4782 32.4465C50.1915 32.4465 47.3846 35.9065 45.8121 38.3259V38.4423H45.7347C45.7553 38.4039 45.7888 38.3649 45.8121 38.3259V33.2824H33.976C34.1349 36.6212 33.976 68.8762 33.976 68.8762H45.8121V68.8769Z"/>
            <path d="M0 0V85H85V0H0ZM79.7423 79.7423H5.25773V5.25773H79.7423V79.7423Z"/>
        </symbol>
        
        <symbol id="twitter" viewBox="0 0 85 85">
        <title>twitter</title>
            <path d="M14.8969 59.8429C19.9089 63.0571 25.8622 64.9322 32.2591 64.9322C53.0921 64.9322 64.4839 47.6741 64.4839 32.706C64.4839 32.2159 64.4729 31.7271 64.4517 31.241C66.665 29.6445 68.5846 27.6496 70.1031 25.3781C68.0719 26.279 65.8894 26.8883 63.598 27.1621C65.9366 25.7601 67.7323 23.5406 68.5778 20.896C66.3891 22.1933 63.9656 23.1367 61.3861 23.644C59.3199 21.443 56.3762 20.0676 53.1181 20.0676C46.8636 20.0676 41.7921 25.1391 41.7921 31.3937C41.7921 32.2809 41.8928 33.1455 42.0858 33.9746C32.6732 33.5022 24.3273 28.9934 18.7409 22.1406C17.7661 23.8138 17.2074 25.7587 17.2074 27.8351C17.2074 31.764 19.2065 35.2308 22.2461 37.2621C20.3888 37.2032 18.6424 36.6931 17.1157 35.8449C17.115 35.8929 17.115 35.9401 17.115 35.988C17.115 41.4751 21.0193 46.053 26.2003 47.0936C25.2501 47.3517 24.2492 47.4914 23.2162 47.4914C22.4864 47.4914 21.7771 47.4202 21.085 47.2873C22.5261 51.7872 26.7097 55.0617 31.6655 55.1527C27.7893 58.191 22.9054 60.0017 17.599 60.0017C16.6844 60.0017 15.7828 59.9483 14.8969 59.8429Z"/>
            <path d="M0 0V85H85V0H0ZM79.7423 79.7423H5.25773V5.25773H79.7423V79.7423Z"/>
        </symbol>
        
        <symbol id="behance" viewBox="0 0 85 85">
        <title>behance</title>
            <path d="M35.7937 58.5888C37.2409 58.2088 38.5327 57.6249 39.6569 56.828C40.7728 56.0387 41.6785 55.0152 42.3432 53.7528C43.0018 52.5061 43.3318 51.0233 43.3318 49.3015C43.3318 47.1772 42.8266 45.3651 41.7956 43.8507C40.7687 42.3466 39.2215 41.2889 37.1314 40.6885C38.6662 39.9622 39.815 39.0277 40.5968 37.8878C41.3725 36.7466 41.76 35.3185 41.76 33.6091C41.76 32.029 41.5005 30.692 40.9829 29.6247C40.4531 28.541 39.7123 27.6811 38.7669 27.0342C37.8064 26.3879 36.6686 25.9162 35.337 25.6335C33.9966 25.3432 32.5309 25.2029 30.907 25.2029H14.8969V59.1604H31.3561C32.8773 59.1604 34.3635 58.9694 35.7937 58.5888ZM22.3741 30.9871H29.3694C30.0307 30.9871 30.6763 31.0343 31.2924 31.1548C31.9195 31.2623 32.4597 31.4622 32.9382 31.7511C33.4201 32.0283 33.8022 32.4254 34.0904 32.932C34.369 33.4386 34.5073 34.0917 34.5073 34.8818C34.5073 36.305 34.0904 37.3422 33.2305 37.97C32.3618 38.608 31.2643 38.9223 29.9403 38.9223H22.3741V30.9871ZM22.3741 53.3769V44.026H30.5024C32.1119 44.026 33.4201 44.3963 34.4012 45.1405C35.3808 45.8949 35.8731 47.1375 35.8731 48.888C35.8731 49.7807 35.7286 50.5201 35.426 51.089C35.1255 51.6627 34.7113 52.1145 34.2109 52.4438C33.7111 52.7861 33.1182 53.0182 32.4494 53.164C31.7908 53.3112 31.0905 53.3769 30.3525 53.3769H22.3741Z"/>
            <path d="M48.9161 56.2221C50.0155 57.364 51.3224 58.241 52.8868 58.866C54.4518 59.4836 56.1947 59.7971 58.1315 59.7971C60.9103 59.7971 63.2954 59.1604 65.2513 57.883C67.2291 56.611 68.6798 54.4983 69.6355 51.5381H63.6884C63.4577 52.2994 62.8621 53.0326 61.8838 53.7178C60.8966 54.4045 59.7191 54.7489 58.3567 54.7489C56.4631 54.7489 55.0008 54.2518 53.9896 53.264C52.9751 52.2761 52.3179 50.4359 52.3179 48.4923H70.0599C70.1873 46.585 70.0326 44.7626 69.5903 43.0182C69.1446 41.2711 68.432 39.7137 67.4297 38.3513C66.4275 36.9876 65.1514 35.897 63.5953 35.0933C62.0337 34.2779 60.2113 33.8774 58.1315 33.8774C56.2475 33.8774 54.5462 34.2122 53.0038 34.8783C51.4614 35.5458 50.1367 36.4604 49.0195 37.6202C47.9049 38.773 47.0581 40.147 46.4447 41.7401C45.8436 43.3277 45.5362 45.0446 45.5362 46.8835C45.5362 48.7846 45.8326 50.5392 46.4193 52.1248C47.0122 53.7185 47.8447 55.0747 48.9161 56.2221ZM52.6259 42.6157C52.7984 42.0016 53.0956 41.4279 53.5317 40.8836C53.9698 40.3483 54.5428 39.8937 55.2411 39.5288C55.9565 39.1585 56.8492 38.977 57.9282 38.977C59.5869 38.977 60.9472 39.4576 61.7489 40.3455C62.5547 41.241 63.1441 42.5137 63.3057 44.2361H52.3172C52.3487 43.7562 52.452 43.2133 52.6259 42.6157Z"/>
            <path d="M50.9363 27.4805H64.7009V30.8316H50.9363V27.4805Z"/>
            <path d="M0 0V85H85V0H0ZM79.7423 79.7423H5.25773V5.25773H79.7423V79.7423Z"/>
        </symbol>

        <symbol id="twitter-2" viewBox="0 0 30 30">
        <title>twitter</title>
            <path d="M30 5.69813C28.8844 6.1875 27.6956 6.51187 26.4562 6.66937C27.7312 5.90812 28.7044 4.71187 29.1619 3.27C27.9731 3.97875 26.6606 4.47938 25.2619 4.75875C24.1331 3.55688 22.5244 2.8125 20.7694 2.8125C17.3644 2.8125 14.6231 5.57625 14.6231 8.96438C14.6231 9.45188 14.6644 9.92062 14.7656 10.3669C9.6525 10.1175 5.12813 7.66688 2.08875 3.93375C1.55812 4.85438 1.24688 5.90812 1.24688 7.0425C1.24688 9.1725 2.34375 11.0606 3.97875 12.1537C2.99062 12.135 2.02125 11.8481 1.2 11.3962C1.2 11.415 1.2 11.4394 1.2 11.4637C1.2 14.4525 3.33187 16.935 6.1275 17.5069C5.62687 17.6438 5.08125 17.7094 4.515 17.7094C4.12125 17.7094 3.72375 17.6869 3.35062 17.6044C4.1475 20.04 6.40875 21.8306 9.0975 21.8888C7.005 23.5256 4.34812 24.5119 1.47188 24.5119C0.9675 24.5119 0.48375 24.4894 0 24.4275C2.72438 26.1844 5.95312 27.1875 9.435 27.1875C20.7525 27.1875 26.94 17.8125 26.94 9.68625C26.94 9.41437 26.9306 9.15188 26.9175 8.89125C28.1381 8.025 29.1637 6.94313 30 5.69813Z"/>
        </symbol>

        <symbol id="insta-2" viewBox="0 0 30 30">
        <title>insta</title>
            <path d="M29.9707 8.82008C29.9004 7.22607 29.6426 6.1302 29.2734 5.18061C28.8924 4.17264 28.3064 3.27022 27.5386 2.52002C26.7884 1.75816 25.88 1.16615 24.8837 0.79117C23.9286 0.421912 22.8385 0.16414 21.2445 0.0938599C19.6385 0.0176273 19.1287 0 15.0557 0C10.9826 0 10.4728 0.0176273 8.87281 0.0879078C7.2788 0.158188 6.18293 0.416188 5.23357 0.785218C4.22538 1.16615 3.32295 1.7522 2.57276 2.52002C1.81089 3.27022 1.21911 4.1786 0.843904 5.17488C0.474646 6.1302 0.216875 7.22011 0.146594 8.81413C0.0703617 10.42 0.0527344 10.9299 0.0527344 15.0029C0.0527344 19.076 0.0703617 19.5858 0.140642 21.1858C0.210923 22.7798 0.468923 23.8757 0.838181 24.8253C1.21911 25.8332 1.81089 26.7356 2.57276 27.4858C3.32295 28.2477 4.23133 28.8397 5.22762 29.2147C6.18293 29.584 7.27284 29.8417 8.86709 29.912C10.4668 29.9825 10.9769 29.9999 15.0499 29.9999C19.123 29.9999 19.6328 29.9825 21.2328 29.912C22.8268 29.8417 23.9227 29.584 24.872 29.2147C26.8882 28.4352 28.4822 26.8412 29.2617 24.8253C29.6307 23.8699 29.8887 22.7798 29.959 21.1858C30.0293 19.5858 30.0469 19.076 30.0469 15.0029C30.0469 10.9299 30.0409 10.42 29.9707 8.82008ZM27.2691 21.0686C27.2045 22.5337 26.9585 23.3249 26.7533 23.8523C26.2492 25.1593 25.212 26.1965 23.905 26.7006C23.3776 26.9057 22.5807 27.1518 21.1213 27.2162C19.5389 27.2867 19.0644 27.3041 15.0616 27.3041C11.0588 27.3041 10.5783 27.2867 9.0017 27.2162C7.53657 27.1518 6.7454 26.9057 6.21795 26.7006C5.56757 26.4602 4.97557 26.0793 4.49505 25.5812C3.99691 25.0947 3.61597 24.5086 3.3756 23.8583C3.17048 23.3308 2.92439 22.5337 2.86006 21.0745C2.78955 19.4922 2.77215 19.0174 2.77215 15.0146C2.77215 11.0118 2.78955 10.5313 2.86006 8.95492C2.92439 7.48979 3.17048 6.69862 3.3756 6.17117C3.61597 5.52056 3.99691 4.92879 4.501 4.44804C4.98724 3.9499 5.57329 3.56896 6.2239 3.32882C6.75135 3.1237 7.54847 2.87761 9.00765 2.81305C10.59 2.74277 11.0648 2.72514 15.0673 2.72514C19.0761 2.72514 19.5506 2.74277 21.1272 2.81305C22.5924 2.87761 23.3835 3.1237 23.911 3.32882C24.5614 3.56896 25.1534 3.9499 25.6339 4.44804C26.132 4.93451 26.513 5.52056 26.7533 6.17117C26.9585 6.69862 27.2045 7.49551 27.2691 8.95492C27.3394 10.5373 27.357 11.0118 27.357 15.0146C27.357 19.0174 27.3394 19.4862 27.2691 21.0686Z"/>
            <path d="M15.0557 7.29639C10.8011 7.29639 7.34912 10.7481 7.34912 15.003C7.34912 19.2578 10.8011 22.7096 15.0557 22.7096C19.3105 22.7096 22.7623 19.2578 22.7623 15.003C22.7623 10.7481 19.3105 7.29639 15.0557 7.29639ZM15.0557 20.002C12.2955 20.002 10.0566 17.7634 10.0566 15.003C10.0566 12.2426 12.2955 10.0039 15.0557 10.0039C17.8161 10.0039 20.0548 12.2426 20.0548 15.003C20.0548 17.7634 17.8161 20.002 15.0557 20.002Z"/>
            <path d="M24.8663 6.99164C24.8663 7.98518 24.0607 8.79077 23.067 8.79077C22.0734 8.79077 21.2678 7.98518 21.2678 6.99164C21.2678 5.99787 22.0734 5.1925 23.067 5.1925C24.0607 5.1925 24.8663 5.99787 24.8663 6.99164Z"/>
        </symbol>

        <symbol id="facebook-2" viewBox="0 0 30 30">
        <title>facebook-2</title>
            <path d="M7.90672 15.978H11.1952V29.5161C11.1952 29.7834 11.4118 30 11.6791 30H17.2548C17.5221 30 17.7387 29.7834 17.7387 29.5161V16.0418H21.5191C21.7649 16.0418 21.9717 15.8573 21.9998 15.6132L22.5739 10.6291C22.5897 10.492 22.5462 10.3546 22.4545 10.2518C22.3627 10.1488 22.2312 10.0899 22.0933 10.0899H17.7389V6.96561C17.7389 6.02381 18.246 5.54623 19.2462 5.54623C19.3888 5.54623 22.0933 5.54623 22.0933 5.54623C22.3606 5.54623 22.5772 5.32955 22.5772 5.06235V0.487452C22.5772 0.220161 22.3606 0.00358065 22.0933 0.00358065H18.1696C18.142 0.00222581 18.0805 0 17.9899 0C17.3091 0 14.9427 0.133645 13.0734 1.85332C11.0022 3.759 11.2901 6.04074 11.3589 6.43636V10.0898H7.90672C7.63943 10.0898 7.42285 10.3064 7.42285 10.5736V15.494C7.42285 15.7613 7.63943 15.978 7.90672 15.978Z"/>
        </symbol>
        
        <symbol id="click-right" viewBox="0 0 70 70">
        <title>click-right</title>
            <path d="M35 0C15.6701 0 0 15.6701 0 35C0 54.3299 15.6701 70 35 70C54.3209 69.9781 69.9781 54.3209 70 35C70 15.6701 54.3299 0 35 0ZM35 67.6667C16.9587 67.6667 2.33333 53.0413 2.33333 35C2.33333 16.9587 16.9587 2.33333 35 2.33333C53.0327 2.3539 67.6461 16.9673 67.6667 35C67.6667 53.0413 53.0413 67.6667 35 67.6667Z"/>
            <path d="M53.9748 24.8757L35.0001 43.8503L16.0255 24.8757C15.5734 24.439 14.8566 24.439 14.4045 24.8757C13.9411 25.3232 13.9282 26.0619 14.3758 26.5253L34.1753 46.3248C34.394 46.5436 34.6907 46.6667 35.0001 46.6667C35.3096 46.6667 35.6062 46.5436 35.825 46.3248L55.6245 26.5253C55.6342 26.516 55.6437 26.5064 55.653 26.4968C56.1006 26.0333 56.0879 25.2948 55.6245 24.8471C55.161 24.3994 54.4225 24.4122 53.9748 24.8757Z"/>
        </symbol>
        
        <symbol id="rise" viewBox="0 0 51 37">
        <title>rise</title>
            <line x1="25.239" y1="11.3214" x2="12.3832" y2="26.6423" stroke="#F00544"/>
            <line x1="37.4729" y1="26.6422" x2="24.6172" y2="11.3213" stroke="#F00544"/>
            <line x1="50.5" x2="50.5" y2="37" stroke="#F00544"/>
            <line x1="50" y1="0.5" y2="0.5" stroke="#F00544"/>
            <line x1="0.5" x2="0.5" y2="37" stroke="#F00544"/>
        </symbol>
        
        <symbol id="20" viewBox="0 0 300 571">
        <title>20</title>
            <path d="M178.96 570.15C133.26 568.73 98.59 546.84 76.39 505.98C49.54 456.56 57.98 395.32 96.57 354.37C115.14 334.67 138.09 322.86 165.05 319.37C216.56 312.79 260.94 339.87 283.49 381.9C296.593 406.167 301.689 433.956 298.048 461.293C294.408 488.631 282.217 514.118 263.22 534.11C244.64 553.62 221.84 565.45 194.95 568.98C193.88 569.12 192.81 569.36 191.74 569.43C187.91 569.71 184.09 569.88 178.96 570.15ZM245.96 441.21C246.115 423.619 244.548 406.055 241.28 388.77C238.49 374.77 234.36 361.15 226.75 348.88C216.23 331.88 201.42 322.13 181 321.83C164.83 321.59 151.24 327.24 140.44 339.36C133 347.71 128.09 357.48 124.44 367.94C118.31 385.55 115.8 403.81 114.77 422.32C113.39 447.26 113.92 472.11 118.45 496.75C121.21 511.75 125.51 526.23 133.74 539.24C146.31 559.14 164.37 568.01 187.74 565.24C202.62 563.48 214.15 555.71 223.02 543.83C231.18 532.9 235.93 520.42 239.24 507.34C244.57 486.54 245.99 465.31 245.98 441.21H245.96Z" fill="#B7B4B4"/>
            <path d="M123.94 252L280.58 225.68C278.65 230.09 276.96 233.97 275.24 237.84C271.57 246.13 267.82 254.39 264.24 262.74C263.34 264.85 262.29 265.74 259.87 265.68C213.457 265.6 167.047 265.58 120.64 265.62H83.38L83.28 265.02C84.06 264.63 84.84 264.23 85.63 263.87C124.02 245.87 159.74 223.82 190.8 194.69C204.67 181.69 216.73 167.21 226.17 150.61C238.01 129.8 242.42 107.53 240.09 83.75C238.74 70.04 236.74 56.5 231.88 43.52C228.7 34.7404 223.957 26.6092 217.88 19.52C197.52 -3.84003 158.73 -3.14002 139.55 25.06C131.76 36.51 127.47 49.27 125.01 62.75C122.889 73.9576 121.854 85.3437 121.92 96.75C121.894 97.3326 121.837 97.9134 121.75 98.49C120.92 98.11 120.25 97.87 119.63 97.49C108.47 91.18 97.33 84.83 86.14 78.57C85.8166 78.4538 85.52 78.2733 85.268 78.0396C85.016 77.8058 84.8139 77.5235 84.6738 77.2097C84.5337 76.8959 84.4585 76.5569 84.4527 76.2133C84.4469 75.8696 84.5106 75.5284 84.64 75.21C94.09 36.46 127.44 6.34998 167.02 0.909985C220.53 -6.44001 269.2 29.22 278.93 82.45C282.93 104.45 276.76 123.37 263.84 140.78C250.92 158.19 235.34 173.14 218.53 186.78C189.75 210.13 158.89 230.47 127.08 249.41L123.89 251.31L123.94 252Z" fill="#B7B4B4"/>
            <path d="M37.9601 20.87C31.9437 22.5494 26.3397 25.4552 21.5004 29.4048C16.6612 33.3543 12.6912 38.2623 9.8401 43.82C5.80681 51.2991 4.11034 59.8163 4.9701 68.27C5.9701 66.84 6.58008 65.84 7.26008 64.86C15.1301 53.62 32.5401 53.02 40.6401 63.7C49.5401 75.43 42.2101 93.7 27.6401 96.02C14.1801 98.17 2.57007 89.72 0.500071 75.4C-2.49993 54.46 7.50005 29.19 31.86 19.7C32.8679 19.3113 33.8961 18.9774 34.9401 18.7C37.2201 18.07 37.2301 18.09 37.9601 20.87Z" fill="#B7B4B4"/>
        </symbol>

        <symbol id="whatsapp" viewBox="0 0 30 30">
        <title>whatsapp</title>
            <path d="M21.8839 17.8837L21.8727 17.9775C19.1239 16.6075 18.8364 16.425 18.4814 16.9575C18.2352 17.3262 17.5177 18.1625 17.3014 18.41C17.0827 18.6537 16.8652 18.6725 16.4939 18.5037C16.1189 18.3162 14.9152 17.9225 13.4902 16.6475C12.3802 15.6537 11.6352 14.435 11.4152 14.06C11.0489 13.4275 11.8152 13.3375 12.5127 12.0175C12.6377 11.755 12.5739 11.5487 12.4814 11.3625C12.3877 11.175 11.6414 9.33747 11.3289 8.60497C11.0289 7.87497 10.7202 7.96747 10.4889 7.96747C9.76892 7.90497 9.24267 7.91497 8.77892 8.39747C6.76142 10.615 7.27017 12.9025 8.99642 15.335C12.3889 19.775 14.1964 20.5925 17.5014 21.7275C18.3939 22.0112 19.2077 21.9712 19.8514 21.8787C20.5689 21.765 22.0602 20.9775 22.3714 20.0962C22.6902 19.215 22.6902 18.4837 22.5964 18.315C22.5039 18.1462 22.2589 18.0525 21.8839 17.8837Z" />
            <path d="M25.65 4.3113C16.0387 -4.97995 0.1325 1.7588 0.12625 14.8663C0.12625 17.4863 0.8125 20.0413 2.12 22.2975L0 30L7.91875 27.935C17.8 33.2725 29.995 26.185 30 14.8738C30 10.9038 28.45 7.16755 25.6312 4.36005L25.65 4.3113ZM27.5025 14.8325C27.495 24.3738 17.0212 30.3325 8.7375 25.4625L8.2875 25.195L3.6 26.4138L4.85625 21.8575L4.5575 21.3888C-0.5975 13.1825 5.325 2.45755 15.09 2.45755C18.4075 2.45755 21.5212 3.7513 23.8663 6.09505C26.21 8.4188 27.5025 11.5325 27.5025 14.8325Z" />
        </symbol>

        <symbol id="mail" viewBox="0 0 30 30">
        <title>mail</title>
            <path d="M11.7718 19.772L11.2755 28.148C11.9855 28.148 12.293 27.782 12.6618 27.3425L15.9906 23.525L22.8883 29.5865C24.1533 30.4325 25.0446 29.987 25.3858 28.19L29.9134 2.73209L29.9147 2.73059C30.316 0.486606 29.2384 -0.39089 28.0059 0.159607L1.39276 12.386C-0.423538 13.232 -0.396037 14.447 1.084 14.9975L7.88791 17.537L23.692 5.67058C24.4358 5.07958 25.1121 5.40658 24.5558 5.99758L11.7718 19.772Z"/>
        </symbol>

        <symbol id="skype" viewBox="0 0 30 30">
        <title>skype</title>
            <path d="M29.1363 18.1837C31.3088 8.42122 22.7563 -0.44752 12.7125 1.25498C7.26 -2.12877 0 1.69498 0 8.18247C0 9.69122 0.41625 11.1037 1.14 12.3212C-0.87875 22.1062 7.74375 30.8474 17.7788 29.0287C24.8725 32.7799 32.7113 25.2987 29.1363 18.1837ZM19.5888 24.0712C16.9538 25.155 12.6175 25.1612 9.99375 23.7875C6.2525 21.7925 5.5875 17.3012 8.815 17.3012C11.2475 17.3012 10.4775 20.1375 12.9338 21.2937C14.0613 21.815 16.485 21.8687 17.8938 20.9187C19.285 19.9875 19.1575 18.5225 18.4013 17.8225C16.3975 15.9725 10.6638 16.7075 8.0425 13.4687C6.90375 12.0637 6.68875 9.58497 8.08875 7.78747C10.5288 4.64747 17.6888 4.45622 20.7675 6.82747C23.61 9.02747 22.8425 11.9475 20.5488 11.9475C17.79 11.9475 19.24 8.33747 14.7863 8.33747C11.5575 8.33747 10.2875 10.6337 12.5613 11.7512C15.6438 13.2825 23.4988 12.7712 23.4988 18.755C23.4925 21.245 21.9663 23.1012 19.5888 24.0712Z"/>
        </symbol>

    </defs>
</svg>
