<svg width="342" height="56" viewBox="0 0 342 56" fill="none" xmlns="http://www.w3.org/2000/svg">
<path d="M6.21833 17.4058V25.9686H15.5456V28.7209H6.21833V37.5385H16.6414V40.2653H2.87988V14.6535H16.6414V17.4058H6.21833ZM31.6262 37.5385H40.5712V40.2653H28.2878V14.679H31.6262V37.5385ZM97.2994 14.679L87.6408 40.2653H83.7927L74.1341 14.679H77.7019L85.7295 36.723L93.7571 14.679H97.2994ZM110.908 17.4058V25.9686H120.235V28.7209H110.908V37.5385H121.331V40.2653H107.57V14.6535H121.331V17.4058H110.908ZM153.085 40.2653H149.746L136.316 19.9033V40.2653H132.977V14.6535H136.316L149.746 34.99V14.6535H153.085V40.2653Z" fill="#B7B4B4"/>
<path d="M189.884 40.5201C188.202 40.5201 186.673 40.2143 185.322 39.6282C183.997 39.0165 182.952 38.1756 182.213 37.1307C181.449 36.0604 181.066 34.8116 181.041 33.4355H184.609C184.736 34.6332 185.22 35.6526 186.087 36.4936C186.979 37.3091 188.228 37.7168 189.91 37.7168C191.49 37.7168 192.738 37.3346 193.656 36.5446C194.573 35.7291 195.057 34.7097 195.057 33.461C195.057 32.4925 194.777 31.6771 194.242 31.0654C193.707 30.4538 193.019 29.9951 192.229 29.6638C191.413 29.358 190.343 29.0012 188.967 28.6444C187.285 28.2112 185.908 27.7525 184.889 27.3192C183.895 26.886 183.029 26.1979 182.29 25.255C181.576 24.3121 181.219 23.0379 181.219 21.4323C181.219 20.0307 181.576 18.8074 182.29 17.7371C183.003 16.6668 183.997 15.8258 185.271 15.2396C186.571 14.6535 188.049 14.3477 189.706 14.3477C192.101 14.3477 194.063 14.9593 195.567 16.1571C197.096 17.3548 197.988 18.9349 198.166 20.9227H194.497C194.369 19.9542 193.86 19.0878 192.968 18.3487C192.05 17.5842 190.852 17.2019 189.374 17.2019C187.973 17.2019 186.851 17.5587 185.959 18.2978C185.067 19.0113 184.634 20.0052 184.634 21.3049C184.634 22.2224 184.889 22.9869 185.399 23.573C185.934 24.1592 186.597 24.6179 187.336 24.9237C188.126 25.2295 189.196 25.5608 190.598 25.9431C192.28 26.4018 193.656 26.8605 194.675 27.3447C195.694 27.7779 196.586 28.4915 197.325 29.4344C198.064 30.3519 198.421 31.6261 198.421 33.2571C198.421 34.5058 198.09 35.6781 197.427 36.7739C196.765 37.8697 195.796 38.7617 194.497 39.4498C193.172 40.1888 191.642 40.5201 189.884 40.5201ZM225.664 14.679V17.4058H218.681V40.2653H215.343V17.4058H208.335V14.679H225.664ZM239.655 14.679V30.8616C239.655 33.1297 240.216 34.8371 241.311 35.9329C242.433 37.0288 243.987 37.5894 245.975 37.5894C247.937 37.5894 249.466 37.0288 250.562 35.9329C251.684 34.8371 252.244 33.1551 252.244 30.8616V14.679H255.583V30.8361C255.583 32.9767 255.149 34.7607 254.308 36.2387C253.442 37.6914 252.295 38.7617 250.817 39.4753C249.364 40.1888 247.759 40.5456 245.924 40.5456C244.115 40.5456 242.484 40.1888 241.006 39.4753C239.553 38.7617 238.406 37.6914 237.565 36.2387C236.724 34.7607 236.317 32.9767 236.317 30.8361V14.679H239.655ZM275.715 14.679C278.493 14.679 280.914 15.2142 282.953 16.259C285.017 17.2784 286.572 18.7565 287.642 20.6933C288.738 22.6301 289.298 24.8982 289.298 27.5231C289.298 30.148 288.738 32.4161 287.642 34.3529C286.572 36.2642 284.992 37.7168 282.953 38.7617C280.914 39.7556 278.519 40.2653 275.715 40.2653H267.764V14.679H275.715ZM275.715 37.513C279.028 37.513 281.526 36.6465 283.284 34.9136C285.017 33.1551 285.884 30.6832 285.884 27.5486C285.884 24.363 284.992 21.8911 283.233 20.1072C281.5 18.3232 278.977 17.4313 275.715 17.4313H271.103V37.5385H275.715V37.513ZM303.646 14.679V40.2653H300.308V14.679H303.646ZM327.525 40.5201C325.155 40.5201 322.989 39.9595 321.026 38.8636C319.064 37.7423 317.51 36.1878 316.363 34.2C315.242 32.1867 314.681 29.9441 314.681 27.4466C314.681 24.9492 315.242 22.7066 316.363 20.7188C317.51 18.7055 319.064 17.151 321.026 16.0551C322.989 14.9338 325.155 14.3732 327.525 14.3732C329.921 14.3732 332.112 14.9338 334.049 16.0551C336.011 17.151 337.54 18.7055 338.687 20.6678C339.808 22.6556 340.369 24.8982 340.369 27.4212C340.369 29.9441 339.808 32.1867 338.687 34.1745C337.566 36.1623 336.011 37.7168 334.049 38.8382C332.112 39.9595 329.921 40.5201 327.525 40.5201ZM327.525 37.6149C329.309 37.6149 330.914 37.2072 332.342 36.3662C333.794 35.5252 334.915 34.3529 335.705 32.7984C336.546 31.2693 336.954 29.4599 336.954 27.4466C336.954 25.3824 336.546 23.5985 335.705 22.0949C334.89 20.5659 333.794 19.3681 332.367 18.5271C330.94 17.6861 329.334 17.2784 327.525 17.2784C325.716 17.2784 324.11 17.6861 322.683 18.5271C321.256 19.3681 320.135 20.5404 319.319 22.0949C318.504 23.624 318.096 25.4079 318.096 27.4466C318.096 29.4854 318.504 31.2693 319.319 32.7984C320.16 34.3274 321.281 35.5252 322.683 36.3662C324.136 37.2072 325.741 37.6149 327.525 37.6149Z" fill="#F00544"/>
<path d="M63.4561 25.994H54.1543H50.8413V28.7973H63.4561V25.994Z" fill="#B7B4B4" stroke="#B7B4B4"/>
<path d="M64.6029 17.4568H54.1543H50.8413V14.6535H64.6029V17.4568Z" fill="#B7B4B4" stroke="#B7B4B4"/>
<path d="M64.6029 37.462H54.1543H50.8413V40.2653H64.6029V37.462Z" fill="#B7B4B4" stroke="#B7B4B4"/>
</svg>
